:SAMPLES-PER-SECOND 30
:FULLY-SPECIFIED
:DEGREES
73
root  -32.9241 38.0168 -29.0907 -43.3553 -84.1834 48.0408
RightUpLeg  -39.1371 -22.8181 -1.67611
RightLeg  22.1236 2.70641 0.95621
RightFoot  12.7836 0.848164 -3.53653
RightToes  0.000482159 0.542163 -0.142577
Spine  46.5211 -6.67142 12.0098
Spine1  11.6185 -1.69717 -0.887214
HEad  -11.4742 -7.82459 -8.87707
LeftShoulder1  9.0355 -18.9713 -34.109
LeftArm  -13.8227 -22.9129 -26.0931
LeftForeArm  26.2842 -31.2315 -5.36449
LeftHand  -0.25398 0.0180481 5.50724
RightShoulder  4.2186 10.9421 22.9814
RightArm  -13.5283 27.795 29.0401
RightForeArm  10.2005 2.16864 6.14719
RightHand  -1.77615 6.43714 -17.6943
LeftUpLeg  -29.8302 6.88805 -5.95418
LeftLeg  57.4308 5.48892 9.68415
LeftFoot  -7.0132 0.0515101 -0.126481
LeftToes  1.06248e-005 4.65854e-005 -8.185e-006
74
root  -33.5126 38.0841 -29.7499 -38.0575 -83.9791 44.6862
RightUpLeg  -41.4807 -23.5648 0.391934
RightLeg  24.1013 3.06692 1.26719
RightFoot  10.8884 0.95346 -4.45645
RightToes  0.000482159 0.542163 -0.142577
Spine  49.6001 -6.42278 11.8862
Spine1  11.1467 -1.44914 0.119014
HEad  -15.1294 -8.46482 -8.23814
LeftShoulder1  9.19869 -20.0845 -32.8908
LeftArm  -15.7128 -27.4191 -25.7143
LeftForeArm  25.2609 -28.5506 -4.79412
LeftHand  -0.25398 0.0180481 5.50724
RightShoulder  4.07251 11.3007 21.1739
RightArm  -16.2203 34.3322 27.5215
RightForeArm  12.0235 -2.3876 5.31984
RightHand  -1.44743 5.23701 -16.0858
LeftUpLeg  -34.9348 10.0976 -6.50792
LeftLeg  58.9093 5.26835 9.90486
LeftFoot  -6.09082 -0.00982394 1.04455
LeftToes  1.06248e-005 4.65854e-005 -8.185e-006
75
root  -34.1187 38.2686 -30.3841 -38.4327 -83.1734 48.0946
RightUpLeg  -44.4832 -24.5524 2.16542
RightLeg  24.5608 3.76904 1.65379
RightFoot  10.5781 1.07979 -5.19293
RightToes  0.000482159 0.542163 -0.142577
Spine  51.3176 -5.75739 10.9351
Spine1  11.8147 -1.16701 1.00726
HEad  -19.3036 -9.27785 -7.55321
LeftShoulder1  9.40587 -21.3012 -31.7948
LeftArm  -17.2821 -33.2979 -24.4348
LeftForeArm  23.8716 -24.9926 -4.09929
LeftHand  -0.25398 0.0180481 5.50724
RightShoulder  3.76257 11.3608 18.8226
RightArm  -20.5127 40.7049 25.1593
RightForeArm  11.2499 -5.38488 4.32341
RightHand  -1.21878 4.28641 -14.8969
LeftUpLeg  -39.7121 13.1193 -9.03682
LeftLeg  55.4315 4.88829 8.11594
LeftFoot  -7.35909 0.0334513 0.286549
LeftToes  1.06248e-005 4.65854e-005 -8.185e-006
76
root  -34.7178 38.4267 -30.9534 -36.3065 -82.3918 49.668
RightUpLeg  -48.1757 -24.8361 4.10016
RightLeg  24.9668 3.57168 1.58698
RightFoot  9.7629 1.25443 -6.36751
RightToes  0.000482159 0.542163 -0.142577
Spine  53.1971 -6.01105 10.8039
Spine1  11.1674 -0.840314 0.000359876
HEad  -22.807 -9.64703 -6.10781
LeftShoulder1  9.38221 -22.3481 -30.13
LeftArm  -18.5832 -38.87 -22.2955
LeftForeArm  22.967 -21.1677 -3.70296
LeftHand  -0.25398 0.0180481 5.50724
RightShoulder  3.72503 11.6472 18.0281
RightArm  -24.8644 45.6104 21.1347
RightForeArm  7.81023 -6.11347 3.89351
RightHand  -1.16526 4.09818 -14.5226
LeftUpLeg  -44.4356 15.4115 -12.4432
LeftLeg  48.9745 4.57969 6.04786
LeftFoot  -8.48018 0.0697242 -0.750156
LeftToes  1.06248e-005 4.65854e-005 -8.185e-006
77
root  -35.2958 38.5115 -31.4561 -31.9288 -81.7206 48.9699
RightUpLeg  -51.7777 -24.4236 5.8206
RightLeg  25.652 2.77385 1.22354
RightFoot  8.43533 1.3674 -7.49277
RightToes  0.000482159 0.542163 -0.142577
Spine  55.7359 -6.91114 11.1207
Spine1  8.87351 -0.598228 -1.95048
HEad  -25.2993 -9.47727 -4.43076
LeftShoulder1  9.28936 -23.2608 -28.4947
LeftArm  -21.475 -43.4876 -19.2811
LeftForeArm  23.8168 -17.4445 -4.01983
LeftHand  -0.25398 0.0180481 5.50724
RightShoulder  3.96758 12.4353 18.3688
RightArm  -28.5294 48.8181 15.8539
RightForeArm  3.71966 -5.09672 4.1646
RightHand  -1.23437 4.56784 -14.6698
LeftUpLeg  -48.6944 17.1579 -16.2917
LeftLeg  41.0713 4.13883 4.25965
LeftFoot  -8.86534 0.0977877 -2.08508
LeftToes  1.06248e-005 4.65854e-005 -8.185e-006
78
root  -35.8597 38.4923 -31.8881 -28.3976 -81.3362 48.8084
RightUpLeg  -55.2881 -23.7617 7.37959
RightLeg  26.8318 2.25517 1.01077
RightFoot  7.36592 1.40935 -8.22707
RightToes  0.000482159 0.542163 -0.142577
Spine  57.6313 -7.3612 11.1793
Spine1  7.9272 -0.330714 -3.1096
HEad  -28.2016 -9.38381 -3.30436
LeftShoulder1  8.96391 -24.1729 -26.0984
LeftArm  -27.0027 -48.2185 -16.0638
LeftForeArm  25.0864 -14.0084 -4.10739
LeftHand  -0.25398 0.0180481 5.50724
RightShoulder  3.93309 12.9681 17.2575
RightArm  -32.8568 51.7078 10.4412
RightForeArm  1.15188 -3.79721 4.25526
RightHand  -1.27971 5.13797 -14.4138
LeftUpLeg  -52.2666 19.2572 -20.7882
LeftLeg  32.5397 2.08743 1.8345
LeftFoot  -7.7503 0.213317 -4.93829
LeftToes  1.06248e-005 4.65854e-005 -8.185e-006
79
root  -36.4238 38.3435 -32.2284 -26.1057 -81.6837 49.6077
RightUpLeg  -58.965 -22.6469 9.09501
RightLeg  28.837 1.90221 0.897435
RightFoot  6.14593 1.40141 -8.81491
RightToes  0.000482159 0.542163 -0.142577
Spine  58.6658 -7.43118 11.3835
Spine1  8.48322 0.332673 -4.4238
HEad  -31.5585 -9.62757 -2.29181
LeftShoulder1  8.48365 -25.4605 -22.8175
LeftArm  -33.8647 -52.5481 -11.8287
LeftForeArm  24.5957 -11.3071 -3.45964
LeftHand  -0.25398 0.0180481 5.50724
RightShoulder  3.89019 13.3477 16.3968
RightArm  -38.9963 54.477 2.66858
RightForeArm  0.143817 -3.28348 4.09277
RightHand  -1.23483 5.52529 -13.4606
LeftUpLeg  -55.7319 21.8583 -25.9233
LeftLeg  25.2002 -1.68817 -0.54189
LeftFoot  -3.99784 0.399876 -6.10945
LeftToes  1.06248e-005 4.65854e-005 -8.185e-006
80
root  -36.9717 38.0889 -32.4804 -23.7027 -82.444 50.2147
RightUpLeg  -62.8437 -21.0666 10.7404
RightLeg  31.5509 1.25243 0.582488
RightFoot  4.47127 1.33691 -9.37679
RightToes  0.000482159 0.542163 -0.142577
Spine  60.0848 -7.25006 11.2527
Spine1  8.42354 0.965573 -5.11821
HEad  -34.3418 -9.54864 -1.96968
LeftShoulder1  8.34819 -26.4491 -21.2939
LeftArm  -40.735 -55.7413 -5.32671
LeftForeArm  22.2462 -9.66017 -2.66297
LeftHand  -0.25398 0.0180481 5.50724
RightShoulder  3.89808 14.1319 15.322
RightArm  -45.8131 56.3871 -5.95169
RightForeArm  -0.595611 -3.66542 3.79804
RightHand  -1.20142 5.92161 -12.6788
LeftUpLeg  -59.6163 22.9366 -30.1273
LeftLeg  21.7301 -4.14863 -1.51536
LeftFoot  0.765257 0.0913801 -1.05885
LeftToes  1.06248e-005 4.65854e-005 -8.185e-006
81
root  -37.4828 37.7773 -32.6811 -19.3471 -83.023 48.5432
RightUpLeg  -66.5223 -19.7177 12.2488
RightLeg  34.5581 0.578435 0.173106
RightFoot  2.83188 1.24269 -9.80491
RightToes  0.000482159 0.542163 -0.142577
Spine  62.1232 -7.1138 11.0344
Spine1  7.07914 1.32807 -5.2915
HEad  -36.1789 -9.28553 -1.92436
LeftShoulder1  8.47653 -27.2642 -20.9364
LeftArm  -47.6503 -57.7949 1.88206
LeftForeArm  19.6606 -8.57798 -1.88437
LeftHand  -0.25398 0.0180481 5.50724
RightShoulder  3.86196 15.1001 13.8383
RightArm  -51.662 57.1373 -13.1185
RightForeArm  -2.70478 -4.09654 3.54226
RightHand  -1.23153 6.37839 -12.5152
LeftUpLeg  -63.0502 21.094 -30.5847
LeftLeg  22.8679 -2.90595 -0.98829
LeftFoot  3.01698 -0.887981 7.0465
LeftToes  1.06248e-005 4.65854e-005 -8.185e-006
82
root  -37.9683 37.4732 -32.8672 -14.1406 -83.2636 45.4369
RightUpLeg  -69.5993 -19.0269 13.7308
RightLeg  37.3893 0.29755 -0.0244642
RightFoot  1.43678 1.1561 -10.2009
RightToes  0.000482159 0.542163 -0.142577
Spine  64.4961 -6.9783 10.8182
Spine1  5.10126 1.42407 -5.23658
HEad  -37.4529 -9.07019 -1.58481
LeftShoulder1  8.52265 -28.107 -20.2907
LeftArm  -54.6428 -59.2265 8.99836
LeftForeArm  16.7425 -7.35953 -1.04411
LeftHand  -0.25398 0.0180481 5.50724
RightShoulder  3.72828 15.8437 12.1881
RightArm  -56.2188 57.0719 -18.0119
RightForeArm  -5.87788 -3.79605 3.29422
RightHand  -1.17153 6.58805 -11.7267
LeftUpLeg  -65.7543 18.345 -28.3168
LeftLeg  26.3873 0.00511298 0.347447
LeftFoot  2.2587 -1.2979 10.7185
LeftToes  1.06248e-005 4.65854e-005 -8.185e-006
83
root  -38.4405 37.2111 -33.0265 -10.4938 -83.6597 43.4402
RightUpLeg  -71.9655 -18.4704 15.1582
RightLeg  39.7595 0.283451 -0.0317154
RightFoot  -0.00477555 1.07092 -10.7492
RightToes  0.000482159 0.542163 -0.142577
Spine  67.0043 -6.70454 10.3468
Spine1  3.19762 1.4318 -5.47337
HEad  -38.504 -8.64035 -0.860146
LeftShoulder1  8.296 -28.7873 -18.9175
LeftArm  -61.4239 -60.1209 16.3735
LeftForeArm  12.6058 -5.76155 -0.335625
LeftHand  -0.25398 0.0180481 5.50724
RightShoulder  3.65066 16.4438 11.1111
RightArm  -60.1605 56.7453 -21.6917
RightForeArm  -8.56125 -2.81829 3.03941
RightHand  -0.884485 6.32222 -9.13569
LeftUpLeg  -68.4663 17.0711 -26.5162
LeftLeg  30.0788 1.53492 1.3001
LeftFoot  0.664631 -1.01562 9.58137
LeftToes  1.06248e-005 4.65854e-005 -8.185e-006
84
root  -38.8856 36.9902 -33.1217 -7.36307 -84.5308 41.9041
RightUpLeg  -73.8874 -17.5505 16.527
RightLeg  41.5741 0.313878 0.00197488
RightFoot  -1.31855 0.98649 -11.2989
RightToes  0.000482159 0.542163 -0.142577
Spine  69.1535 -6.21244 9.58477
Spine1  2.02988 1.61854 -5.97728
HEad  -39.3794 -7.91548 -0.37681
LeftShoulder1  7.82129 -29.1124 -17.0718
LeftArm  -67.3662 -60.2614 23.1484
LeftForeArm  7.67133 -4.40711 0.233154
LeftHand  -0.25398 0.0180481 5.50724
RightShoulder  3.56089 16.9433 10.1261
RightArm  -63.4919 56.5257 -24.6531
RightForeArm  -11.0707 -1.76712 2.89279
RightHand  -0.583113 6.12641 -6.3174
LeftUpLeg  -71.2676 17.0887 -25.9421
LeftLeg  32.9007 1.88369 1.66797
LeftFoot  -0.457379 -0.81916 8.62816
LeftToes  1.06248e-005 4.65854e-005 -8.185e-006
